<mxfile host="app.diagrams.net" modified="2023-09-17T03:17:42.805Z" agent="Mozilla/5.0 (Macintosh; Intel Mac OS X 10.15; rv:109.0) Gecko/20100101 Firefox/117.0" version="21.7.5" etag="PVrd5Awoa_7gz0vED5VY" type="github">
  <diagram name="PÃ¡gina-1" id="52S2VvneuYErsrDnkz6s">
    <mxGraphModel>
      <root>
        <mxCell id="0" />
        <mxCell id="1" parent="0" />
      </root>
    </mxGraphModel>
  </diagram>
</mxfile>
